<?xml version="1.0" encoding="utf-8"?>
<svg viewBox="0 0 100 100" xmlns="http://www.w3.org/2000/svg">
  <path fill-rule="evenodd" clip-rule="evenodd" d="M 70.522 56.87 C 70.471 56.107 70.442 55.341 70.364 54.581 C 70.212 53.095 69.881 51.651 69.262 50.283 C 68.988 49.677 68.657 49.103 68.247 48.578 C 68.17 48.48 68.087 48.387 67.993 48.275 C 67.872 48.387 67.895 48.517 67.886 48.632 C 67.732 50.404 67.203 52.055 66.26 53.567 C 65.29 55.121 63.964 56.286 62.313 57.084 C 62.262 57.109 62.209 57.129 62.078 57.185 C 63.002 55.925 63.654 54.634 63.703 53.073 C 63.628 53.098 63.582 53.102 63.553 53.125 C 62.019 54.371 60.26 55.188 58.406 55.823 C 56.687 56.411 54.917 56.782 53.114 57.002 C 51.644 57.181 50.169 57.261 48.688 57.255 C 48.632 57.255 48.576 57.255 48.498 57.202 C 48.593 57.157 48.686 57.11 48.782 57.068 C 50.925 56.148 52.832 54.884 54.435 53.186 C 55.933 51.6 56.989 49.766 57.525 47.645 C 57.544 47.569 57.57 47.495 57.618 47.34 C 57.708 47.525 57.778 47.648 57.829 47.779 C 58.17 48.647 58.255 49.556 58.195 50.475 C 58.154 51.123 58.046 51.767 57.969 52.413 C 57.96 52.49 57.96 52.568 57.95 52.732 C 58.103 52.58 58.209 52.485 58.303 52.379 C 59.365 51.198 60.06 49.821 60.455 48.292 C 60.976 46.276 60.894 44.262 60.425 42.251 C 60.215 41.348 59.93 40.468 59.581 39.609 C 59.535 39.496 59.494 39.381 59.476 39.249 C 60.736 40.116 61.739 41.223 62.541 42.514 C 63.34 43.802 63.854 45.198 64.116 46.768 C 64.16 46.657 64.183 46.617 64.192 46.574 C 64.203 46.519 64.207 46.461 64.207 46.404 C 64.21 45.444 64.243 44.483 64.205 43.524 C 64.155 42.257 64.088 40.989 63.963 39.728 C 63.529 35.36 62.622 31.107 60.746 27.102 C 59.872 25.239 58.789 23.509 57.421 21.962 C 57.385 21.921 57.353 21.877 57.264 21.763 C 57.498 21.801 57.661 21.821 57.821 21.852 C 60.753 22.434 63.48 23.541 66.026 25.089 C 70.622 27.884 74.002 31.768 76.335 36.581 C 77.67 39.334 78.568 42.229 79.156 45.224 C 79.561 47.29 79.809 49.375 79.94 51.476 C 80.042 53.12 80.057 54.765 80.039 56.411 C 80.038 56.487 80.025 56.563 79.964 56.652 C 79.932 56.553 79.896 56.456 79.867 56.356 C 79.174 53.888 78.198 51.544 76.8 49.384 C 75.962 48.09 74.984 46.914 73.79 45.927 C 73.232 45.465 72.639 45.058 72.001 44.715 C 71.902 44.662 71.799 44.617 71.634 44.538 C 71.648 44.716 71.651 44.845 71.669 44.971 C 71.964 46.935 72.034 48.909 71.914 50.888 C 71.798 52.789 71.47 54.653 70.756 56.433 C 70.694 56.589 70.625 56.741 70.559 56.896 C 70.547 56.887 70.534 56.878 70.522 56.87 Z" style=""/>
  <path fill-rule="evenodd" clip-rule="evenodd" d="M 56.673 22.878 C 55.273 27.243 52.8 30.847 48.939 33.561 C 50.113 33.58 51.196 33.437 52.273 33.265 C 53.355 33.092 54.43 32.877 55.588 32.666 C 55.425 32.792 55.322 32.877 55.214 32.955 C 53.654 34.084 51.905 34.772 50.017 35.1 C 48.765 35.317 47.502 35.476 46.242 35.65 C 45.107 35.808 43.975 35.981 42.863 36.266 C 42.774 36.288 42.685 36.312 42.597 36.337 C 41.05 36.786 40.198 37.823 40.008 39.406 C 39.887 40.425 39.99 41.435 40.154 42.506 C 40.367 42.294 40.534 42.104 40.726 41.942 C 40.935 41.765 41.157 41.6 41.389 41.455 C 41.612 41.317 41.85 41.2 42.091 41.093 C 42.329 40.987 42.577 40.905 42.846 40.858 C 42.782 40.909 42.719 40.962 42.652 41.011 C 42.256 41.3 41.961 41.676 41.722 42.098 C 41.278 42.886 41.046 43.743 40.89 44.625 C 40.775 45.279 40.703 45.934 40.742 46.602 C 40.758 46.885 40.73 47.173 40.694 47.455 C 40.536 48.701 39.835 49.378 38.585 49.507 C 38.425 49.523 38.264 49.524 38.104 49.543 C 37.436 49.62 36.834 49.441 36.275 49.085 C 35.652 48.686 35.12 48.185 34.631 47.636 C 34.467 47.451 34.313 47.258 34.192 47.027 C 34.287 47.08 34.383 47.134 34.479 47.187 C 35.244 47.61 36.035 47.968 36.906 48.115 C 37.13 48.153 37.361 48.168 37.589 48.174 C 37.974 48.183 38.266 47.999 38.506 47.712 C 38.623 47.573 38.648 47.446 38.553 47.28 C 38.361 46.946 38.126 46.658 37.799 46.449 C 37.724 46.401 37.645 46.357 37.572 46.252 C 37.679 46.252 37.787 46.26 37.893 46.25 C 38.144 46.226 38.397 46.212 38.642 46.161 C 38.971 46.094 38.995 46.054 38.981 45.721 C 38.946 44.901 38.742 44.12 38.408 43.371 C 38.348 43.235 38.287 43.098 38.21 42.972 C 37.659 42.072 37.445 41.073 37.33 40.042 C 37.227 39.108 37.236 38.171 37.269 37.234 C 37.273 37.111 37.269 36.987 37.269 36.87 C 36.793 36.747 36.408 36.89 36.212 37.287 C 35.954 37.808 35.708 38.337 35.485 38.875 C 35.382 39.124 35.346 39.402 35.272 39.694 C 35.038 39.402 34.961 39.03 34.763 38.697 C 34.709 38.724 34.658 38.741 34.617 38.771 C 34.222 39.063 33.773 39.235 33.298 39.329 C 33.095 39.369 32.981 39.466 32.888 39.64 C 32.654 40.074 32.424 40.507 32.321 40.995 C 32.315 41.023 32.29 41.047 32.249 41.111 C 32.111 40.83 31.98 40.578 31.863 40.321 C 31.751 40.073 31.653 39.818 31.531 39.523 C 31.163 39.573 30.801 39.611 30.443 39.673 C 30.171 39.721 30.011 39.895 29.929 40.165 C 29.749 40.761 29.747 41.367 29.851 41.965 C 29.95 42.525 30.12 43.072 30.261 43.625 C 30.285 43.722 30.316 43.817 30.359 43.966 C 30.245 43.908 30.176 43.881 30.116 43.841 C 29.464 43.406 28.951 42.842 28.596 42.147 C 28.393 41.751 28.231 41.334 28.05 40.927 C 27.776 40.312 27.517 39.689 27.222 39.084 C 26.629 37.87 26.13 36.619 25.673 35.349 C 25.662 35.318 25.659 35.284 25.647 35.225 C 25.718 35.22 25.781 35.203 25.841 35.211 C 27.008 35.351 28.124 35.133 29.216 34.743 C 30.435 34.309 31.541 33.663 32.585 32.909 C 34.35 31.633 35.891 30.121 37.279 28.45 C 37.359 28.354 37.438 28.258 37.528 28.15 C 37.67 28.202 37.798 28.248 37.925 28.295 C 38.976 28.691 40.039 29.045 41.145 29.265 C 41.942 29.423 42.579 29.239 43.104 28.603 C 43.624 27.973 44.081 27.305 44.491 26.603 C 44.75 26.16 44.994 25.708 45.272 25.266 C 45.272 25.655 45.167 26.028 45.094 26.404 C 45.021 26.785 44.939 27.165 44.856 27.544 C 44.771 27.935 44.683 28.325 44.593 28.714 C 44.507 29.089 44.417 29.463 44.313 29.904 C 44.557 29.866 44.747 29.85 44.929 29.805 C 45.567 29.646 46.135 29.344 46.575 28.859 C 47.051 28.334 47.514 27.793 47.93 27.221 C 49.071 25.656 50.032 23.979 50.962 22.283 C 51.017 22.183 51.071 22.084 51.166 21.985 C 51.161 22.053 51.16 22.122 51.151 22.189 C 51.14 22.268 51.125 22.347 51.107 22.425 C 50.793 23.87 50.29 25.257 49.737 26.623 C 49.165 28.031 48.549 29.421 47.952 30.818 C 47.905 30.93 47.856 31.041 47.808 31.153 C 47.824 31.171 47.84 31.189 47.857 31.207 C 47.965 31.156 48.075 31.108 48.181 31.054 C 49.551 30.359 50.764 29.444 51.89 28.409 C 53.611 26.828 55.088 25.041 56.404 23.118 C 56.468 23.025 56.534 22.933 56.599 22.841 C 56.624 22.854 56.649 22.866 56.673 22.878 Z M 37.922 30.838 C 36.835 32.032 35.609 33.056 34.441 34.138 C 34.453 34.161 34.465 34.184 34.477 34.208 C 35.33 34.075 36.183 33.942 37.033 33.81 C 37.337 32.794 37.629 31.816 37.922 30.838 Z" style=""/>
  <path fill-rule="evenodd" clip-rule="evenodd" d="M 34.68 57.228 C 34.755 56.841 34.809 56.492 34.891 56.151 C 35.319 54.384 36.258 52.923 37.59 51.7 C 38.489 50.875 39.486 50.181 40.559 49.606 C 41.518 49.091 42.497 48.616 43.477 48.143 C 44.879 47.465 46.197 46.668 47.29 45.545 C 48.059 44.754 48.67 43.867 48.925 42.773 C 49.272 41.287 48.659 39.941 47.269 39.304 C 46.087 38.762 44.829 38.509 43.521 38.614 C 42.903 38.663 42.322 38.855 41.876 39.308 C 41.656 39.532 41.494 39.812 41.298 40.075 C 41.29 40.042 41.268 39.988 41.267 39.933 C 41.255 39.288 41.514 38.758 41.969 38.315 C 42.326 37.967 42.75 37.718 43.203 37.516 C 44.007 37.158 44.855 36.967 45.723 36.868 C 47.056 36.716 48.392 36.722 49.681 37.11 C 52.331 37.908 54.172 39.542 54.78 42.325 C 54.98 43.237 55.068 44.174 55.202 45.1 C 55.23 45.29 55.237 45.482 55.259 45.726 C 54.849 45.282 54.474 44.876 54.1 44.469 C 54.078 44.479 54.057 44.489 54.036 44.499 C 54.036 44.557 54.024 44.619 54.038 44.673 C 54.262 45.59 54.216 46.513 54.081 47.433 C 53.914 48.578 53.591 49.686 53.205 50.776 C 53.186 50.827 53.161 50.876 53.11 50.927 C 53.106 49.969 53.118 49.011 52.635 48.132 C 52.193 50.344 51.297 52.32 49.774 53.994 C 49.993 53.32 50.221 52.653 50.279 51.943 C 50.29 51.809 50.292 51.674 50.301 51.482 C 50.182 51.549 50.098 51.578 50.039 51.634 C 49.593 52.06 49.122 52.465 48.716 52.928 C 47.944 53.81 47.734 54.87 47.88 56.006 C 47.932 56.41 48.05 56.805 48.143 57.228 L 34.68 57.228 Z" style=""/>
  <path fill-rule="evenodd" clip-rule="evenodd" d="M 95.822 55.49 C 95.561 55.602 95.303 55.722 95.037 55.822 C 94.907 55.872 94.863 55.958 94.856 56.08 C 94.847 56.228 94.838 56.376 94.834 56.525 C 94.816 57.14 94.792 57.756 94.787 58.372 C 94.774 60.086 94.771 61.8 94.762 63.514 C 94.748 66.095 94.73 68.677 94.717 71.259 C 94.707 73.224 94.704 75.19 94.691 77.155 C 94.689 77.496 94.65 77.836 94.625 78.238 C 94.548 78.147 94.487 78.093 94.447 78.026 C 93.858 77.034 93.26 76.046 92.688 75.045 C 90.772 71.693 88.866 68.335 86.953 64.981 C 86.342 63.909 85.72 62.844 85.1 61.777 C 85.034 61.663 84.956 61.557 84.884 61.447 C 84.862 61.454 84.84 61.461 84.818 61.469 C 84.818 61.827 84.815 62.185 84.82 62.544 C 84.822 62.691 84.849 62.839 84.85 62.986 C 84.861 63.797 84.861 64.609 84.877 65.419 C 84.891 66.172 84.915 66.925 84.946 67.677 C 84.985 68.656 85.029 69.636 85.085 70.614 C 85.113 71.113 85.172 71.611 85.219 72.13 C 85.834 72.347 86.435 72.561 87.036 72.773 C 84.585 72.846 82.139 72.751 79.674 72.713 C 79.945 72.582 80.215 72.45 80.487 72.32 C 80.57 72.281 80.653 72.235 80.741 72.216 C 81.074 72.146 81.154 71.911 81.17 71.614 C 81.219 70.681 81.288 69.748 81.326 68.815 C 81.383 67.39 81.423 65.965 81.466 64.54 C 81.493 63.605 81.51 62.67 81.535 61.734 C 81.555 60.993 81.581 60.252 81.602 59.511 C 81.607 59.307 81.603 59.103 81.603 58.888 C 80.954 58.674 80.327 58.468 79.652 58.245 C 79.797 58.136 79.92 58.172 80.03 58.172 C 81.509 58.169 82.989 58.176 84.468 58.167 C 85.062 58.164 85.655 58.128 86.273 58.106 C 86.521 58.525 86.759 58.939 87.009 59.346 C 88.295 61.439 89.583 63.531 90.874 65.621 C 90.972 65.78 91.098 65.921 91.271 66.043 C 91.283 65.853 91.304 65.664 91.306 65.474 C 91.324 63.556 91.348 61.637 91.35 59.718 C 91.351 58.817 91.315 57.916 91.28 57.015 C 91.268 56.709 91.201 56.406 91.169 56.1 C 91.15 55.928 91.061 55.848 90.899 55.793 C 90.423 55.629 89.953 55.447 89.482 55.27 C 89.432 55.251 89.384 55.226 89.345 55.147 L 95.822 55.147 L 95.822 55.49 Z" style=""/>
  <path fill-rule="evenodd" clip-rule="evenodd" d="M 24.944 69.945 C 25.084 70.484 25.295 70.954 25.622 71.395 C 25.669 71.087 25.727 70.78 25.761 70.47 C 25.868 69.519 25.963 68.567 26.066 67.615 C 26.16 66.74 26.217 65.862 26.173 64.984 C 26.116 63.847 26.023 62.711 25.934 61.575 C 25.895 61.076 25.826 60.578 25.776 60.08 C 25.764 59.958 25.774 59.833 25.774 59.68 C 26.31 59.68 26.835 59.668 27.36 59.682 C 28.413 59.71 29.467 59.766 30.491 60.032 C 31.696 60.345 32.843 60.797 33.844 61.56 C 35.045 62.475 35.713 63.702 35.928 65.176 C 35.997 65.647 35.996 66.13 36.008 66.609 C 36.021 67.098 36.012 67.098 36.55 67.076 C 36.564 66.977 36.594 66.87 36.592 66.764 C 36.569 65.68 36.541 64.596 36.516 63.512 C 36.488 62.337 36.461 61.161 36.435 59.986 C 36.434 59.953 36.446 59.92 36.454 59.874 C 36.508 59.863 36.563 59.843 36.617 59.842 C 37.981 59.828 39.343 59.844 40.689 60.096 C 41.684 60.284 42.603 60.644 43.364 61.336 C 43.99 61.905 44.351 62.612 44.471 63.445 C 44.551 63.997 44.501 64.536 44.312 65.06 C 44.093 65.664 43.673 66.107 43.15 66.462 C 42.653 66.799 42.109 67.034 41.532 67.2 C 41.38 67.243 41.232 67.302 41.032 67.371 C 41.519 67.997 42.036 68.537 42.573 69.055 C 43.113 69.576 43.673 70.079 44.324 70.493 C 44.039 70.528 43.753 70.565 43.458 70.602 C 43.623 70.839 44.167 71.196 44.683 71.406 C 44.73 71.283 44.787 71.163 44.823 71.037 C 45.195 69.743 45.582 68.453 45.929 67.152 C 46.481 65.079 47.006 62.999 47.544 60.922 C 47.569 60.822 47.611 60.726 47.629 60.626 C 47.66 60.449 47.763 60.379 47.936 60.368 C 48.621 60.325 49.305 60.271 49.99 60.23 C 50.755 60.184 51.52 60.148 52.285 60.106 C 52.753 60.08 53.221 60.051 53.689 60.025 C 53.73 60.022 53.771 60.031 53.887 60.041 C 53.296 60.465 52.764 60.848 52.218 61.239 C 52.46 61.788 52.69 62.308 52.919 62.829 C 54.146 65.607 55.375 68.384 56.598 71.164 C 56.689 71.372 56.814 71.529 57.021 71.632 C 57.451 71.846 57.874 72.072 58.375 72.332 L 52.632 72.332 C 52.82 72.13 53.074 72.038 53.3 71.909 C 53.538 71.774 53.784 71.652 54.051 71.511 C 54.025 71.42 54.005 71.322 53.968 71.232 C 53.52 70.107 53.07 68.984 52.62 67.861 C 52.501 67.565 52.5 67.574 52.177 67.598 C 51.652 67.637 51.126 67.654 50.602 67.698 C 49.998 67.748 49.397 67.816 48.795 67.878 C 48.751 67.883 48.708 67.899 48.643 67.915 C 48.29 69.198 47.937 70.483 47.576 71.797 C 48.01 71.969 48.428 72.135 48.847 72.301 C 46.494 72.171 44.168 72.494 41.822 72.558 C 41.593 72.064 41.375 71.574 41.14 71.093 C 40.615 70.014 40.084 68.939 39.545 67.866 C 39.481 67.739 39.445 67.515 39.225 67.582 C 39.033 67.641 39.113 67.835 39.111 67.972 C 39.098 69.035 39.099 70.097 39.081 71.16 C 39.077 71.404 39.134 71.561 39.373 71.673 C 39.627 71.791 39.856 71.965 40.09 72.149 C 38.603 72.329 37.122 72.469 35.582 72.57 C 36.058 70.868 36.442 69.194 36.558 67.431 C 36.395 67.39 36.223 67.347 36.024 67.296 C 35.974 67.579 35.928 67.846 35.879 68.111 C 35.585 69.712 34.64 70.801 33.189 71.477 C 31.976 72.043 30.7 72.412 29.368 72.533 C 28.458 72.616 27.538 72.601 26.623 72.636 C 26.315 72.648 26.008 72.686 25.7 72.696 C 25.314 72.709 24.926 72.705 24.54 72.708 C 24.482 72.708 24.425 72.704 24.368 72.703 C 23.554 72.695 22.74 72.692 21.926 72.679 C 21.377 72.67 20.828 72.642 20.279 72.638 C 19.948 72.636 19.617 72.666 19.285 72.677 C 18.907 72.689 18.529 72.692 18.151 72.705 C 18.018 72.709 17.885 72.731 17.675 72.753 C 18.399 73.619 19.14 74.369 19.91 75.092 C 20.677 75.812 21.48 76.486 22.424 77.072 C 22.276 77.102 22.19 77.131 22.103 77.137 C 21.19 77.194 20.276 77.243 19.363 77.301 C 18.805 77.337 18.246 77.377 17.688 77.43 C 17.506 77.447 17.398 77.394 17.289 77.244 C 15.377 74.591 13.455 71.947 11.545 69.293 C 10.924 68.429 10.349 67.534 9.865 66.585 C 9.845 66.545 9.814 66.509 9.77 66.443 C 9.559 66.466 9.337 66.49 9.105 66.515 C 9.079 66.78 9.045 67.016 9.036 67.252 C 9.02 67.72 9.019 68.189 9.01 68.657 C 8.989 69.684 8.969 70.711 8.943 71.738 C 8.936 71.986 8.998 72.164 9.234 72.303 C 9.537 72.482 9.809 72.713 10.089 72.959 C 9.271 73.112 8.453 73.188 7.635 73.273 C 6.809 73.358 5.985 73.462 5.102 73.504 C 5.642 71.102 6.108 68.736 6.245 66.29 C 5.536 66.09 4.827 65.931 4.179 65.594 C 4.865 65.692 5.551 65.79 6.286 65.894 C 6.286 65.399 6.291 64.956 6.284 64.514 C 6.279 64.207 6.261 63.9 6.242 63.593 C 6.172 62.409 6.105 61.226 6.026 60.043 C 5.961 59.054 5.886 58.066 5.805 57.078 C 5.756 56.477 5.687 55.877 5.63 55.277 C 5.625 55.223 5.64 55.167 5.648 55.085 C 5.739 55.115 5.813 55.133 5.882 55.164 C 6.943 55.632 8.061 55.928 9.171 56.25 C 10.062 56.509 10.947 56.785 11.785 57.186 C 12.801 57.672 13.717 58.287 14.33 59.262 C 14.899 60.167 15.064 61.162 14.97 62.216 C 14.908 62.9 14.726 63.54 14.345 64.114 C 13.772 64.976 12.946 65.512 12.003 65.893 C 11.823 65.966 11.638 66.028 11.458 66.101 C 11.377 66.133 11.303 66.182 11.174 66.251 C 13.019 67.859 14.862 69.403 16.806 70.922 C 16.843 70.793 16.881 70.715 16.885 70.636 C 16.92 69.941 16.965 69.246 16.977 68.551 C 17.009 66.61 17.03 64.668 17.046 62.727 C 17.049 62.352 16.989 61.976 16.986 61.601 C 16.984 61.301 16.86 61.069 16.65 60.879 C 16.37 60.626 16.079 60.386 15.79 60.144 C 15.679 60.05 15.56 59.965 15.399 59.841 C 15.861 59.841 16.266 59.832 16.671 59.843 C 17.07 59.855 17.471 59.874 17.869 59.911 C 18.911 60.006 19.95 59.888 20.99 59.884 C 21.871 59.879 22.752 59.843 23.633 59.815 C 23.942 59.806 24.249 59.776 24.558 59.758 C 24.646 59.753 24.736 59.757 24.85 59.757 C 24.774 60.675 24.701 61.565 24.625 62.483 C 24.431 62.327 24.251 62.174 24.063 62.032 C 23.575 61.662 23.057 61.354 22.426 61.295 C 21.818 61.238 21.218 61.297 20.622 61.413 C 20.398 61.457 20.176 61.517 19.951 61.554 C 19.772 61.585 19.697 61.687 19.683 61.856 C 19.666 62.06 19.63 62.263 19.624 62.468 C 19.592 63.483 19.567 64.497 19.54 65.515 C 19.634 65.544 19.685 65.573 19.738 65.575 C 20.803 65.596 21.866 65.546 22.926 65.44 C 23.175 65.416 23.36 65.32 23.518 65.102 C 23.686 64.871 23.931 64.695 24.166 64.473 C 24.187 65.548 24.206 66.566 24.226 67.627 C 24.101 67.589 24.026 67.573 23.957 67.544 C 22.669 67.006 21.343 66.914 19.985 67.214 C 19.906 67.231 19.83 67.259 19.752 67.275 C 19.619 67.303 19.557 67.379 19.564 67.516 C 19.617 68.712 19.668 69.908 19.721 71.103 C 19.721 71.114 19.73 71.124 19.743 71.153 C 19.781 71.166 19.833 71.198 19.885 71.199 C 20.894 71.203 21.902 71.209 22.911 71.201 C 23.114 71.199 23.318 71.147 23.52 71.111 C 24.124 71.003 24.579 70.701 24.818 70.117 C 24.835 70.075 24.861 70.037 24.885 69.998 C 24.89 69.988 24.901 69.982 24.944 69.945 Z M 33.613 67.086 C 32.95 67.434 32.297 67.691 31.55 67.862 C 31.661 67.677 31.743 67.545 31.822 67.41 C 32.401 66.424 32.695 65.376 32.445 64.233 C 32.236 63.276 31.714 62.59 30.692 62.402 C 30.018 62.277 29.341 62.172 28.664 62.062 C 28.604 62.052 28.538 62.078 28.478 62.087 C 28.557 62.821 28.647 63.533 28.705 64.248 C 28.763 64.962 28.817 65.68 28.819 66.396 C 28.822 67.124 28.781 67.853 28.719 68.579 C 28.658 69.286 28.546 69.988 28.453 70.723 C 28.6 70.723 28.725 70.733 28.849 70.721 C 29.649 70.647 30.435 70.506 31.178 70.186 C 32.124 69.778 32.88 69.161 33.324 68.214 C 33.481 67.879 33.628 67.533 33.613 67.086 Z M 9.056 65.804 C 9.295 65.746 9.505 65.705 9.709 65.644 C 10.768 65.327 11.524 64.71 11.775 63.579 C 11.977 62.665 12.016 61.751 11.836 60.832 C 11.707 60.177 11.49 59.554 11.077 59.017 C 10.777 58.628 10.416 58.306 9.904 58.25 C 9.454 58.2 9.301 58.349 9.307 58.733 C 9.31 58.892 9.302 59.052 9.295 59.212 C 9.254 60.133 9.207 61.055 9.172 61.977 C 9.141 62.774 9.123 63.572 9.1 64.369 C 9.086 64.824 9.072 65.278 9.056 65.804 Z M 39.103 65.932 C 39.163 65.945 39.187 65.957 39.207 65.953 C 40.16 65.756 41.011 65.361 41.654 64.613 C 42.417 63.724 42.018 62.515 41.206 62.087 C 40.733 61.837 40.232 61.705 39.703 61.657 C 39.49 61.637 39.273 61.6 39.021 61.728 C 39.049 63.124 39.076 64.532 39.103 65.932 Z M 50.297 62.045 C 50.078 62.506 49.161 65.946 49.181 66.207 C 50.085 66.24 50.99 66.203 51.945 66.178 C 51.389 64.783 50.854 63.442 50.297 62.045 Z" style=""/>
  <path fill-rule="evenodd" clip-rule="evenodd" d="M 79.324 67.014 C 79.859 66.528 80.189 65.971 80.6 65.443 C 80.587 65.555 80.58 65.669 80.561 65.78 C 80.375 66.852 79.945 67.833 79.417 68.774 C 79.131 69.281 78.847 69.787 78.581 70.306 C 77.956 71.529 76.99 72.356 75.616 72.644 C 75.327 72.705 75.027 72.741 74.732 72.743 C 74.172 72.747 73.61 72.74 73.051 72.701 C 71.218 72.571 69.974 71.625 69.325 69.925 C 69.086 69.298 68.929 68.64 68.735 67.996 C 68.716 67.936 68.7 67.874 68.665 67.747 C 68.336 68.195 68.044 68.596 67.702 69.063 C 67.665 68.808 67.631 68.627 67.613 68.444 C 67.507 67.351 67.665 66.285 67.968 65.236 C 68.301 64.084 68.832 63.022 69.519 62.044 C 70.177 61.108 71.084 60.513 72.213 60.286 C 73.692 59.989 75.11 60.147 76.424 60.928 C 77.39 61.502 78.064 62.345 78.531 63.35 C 79.039 64.442 79.277 65.598 79.301 66.8 C 79.302 66.845 79.31 66.89 79.324 67.014 Z M 70.264 66.056 C 70.241 66.764 70.344 67.416 70.549 68.05 C 70.842 68.958 71.338 69.721 72.195 70.199 C 72.649 70.453 73.145 70.571 73.665 70.628 C 74.274 70.695 74.853 70.62 75.401 70.357 C 76.341 69.909 76.898 69.131 77.169 68.158 C 77.491 67.002 77.385 65.853 76.972 64.733 C 76.736 64.09 76.372 63.53 75.835 63.092 C 74.992 62.404 74.008 62.216 72.962 62.356 C 71.902 62.498 71.125 63.066 70.653 64.035 C 70.335 64.688 70.227 65.378 70.264 66.056 Z" style=""/>
  <path fill-rule="evenodd" clip-rule="evenodd" d="M 66.929 66.539 C 67.096 68.474 67.099 70.385 67.655 72.247 C 67.571 72.266 67.521 72.287 67.469 72.289 C 66.703 72.314 65.936 72.344 65.17 72.358 C 63.99 72.38 62.811 72.406 61.631 72.4 C 60.775 72.396 59.952 72.202 59.174 71.839 C 58.057 71.317 57.25 70.485 56.757 69.367 C 56.153 67.996 55.952 66.558 56.215 65.083 C 56.481 63.59 57.298 62.417 58.469 61.47 C 59.48 60.651 60.647 60.253 61.925 60.084 C 62.865 59.959 63.777 60.064 64.681 60.277 C 65.628 60.501 66.565 60.759 67.506 61.004 C 67.572 61.021 67.633 61.053 67.745 61.098 C 67.185 61.94 66.9 62.867 66.759 63.899 C 66.589 63.757 66.453 63.642 66.317 63.529 C 65.461 62.817 64.519 62.268 63.418 62.032 C 62.456 61.826 61.502 61.862 60.585 62.235 C 59.106 62.836 58.478 64.167 58.807 65.678 C 58.954 66.354 59.303 66.924 59.78 67.42 C 59.887 67.532 59.998 67.64 60.154 67.797 C 59.8 67.793 59.539 67.715 59.296 67.599 C 59.062 67.488 58.846 67.34 58.59 67.188 C 58.643 67.695 58.782 68.147 58.974 68.584 C 59.535 69.862 60.554 70.514 61.906 70.728 C 62.943 70.892 63.931 70.739 64.898 70.356 C 65.122 70.267 65.204 70.143 65.235 69.906 C 65.3 69.401 65.195 68.907 65.187 68.407 C 65.184 68.238 65.069 68.112 64.915 68.038 C 64.482 67.83 64.055 67.607 63.611 67.426 C 63.05 67.199 62.474 67.007 61.905 66.798 C 61.844 66.776 61.785 66.75 61.735 66.676 C 61.797 66.676 61.86 66.677 61.923 66.676 C 62.964 66.653 64.006 66.633 65.047 66.605 C 65.55 66.592 66.052 66.561 66.555 66.539 C 66.669 66.535 66.783 66.539 66.929 66.539 Z" style=""/>
  <path fill-rule="evenodd" clip-rule="evenodd" d="M 72.183 66.121 C 73.152 65.5 73.416 64.525 73.68 63.468 C 74.004 64.482 74.199 65.475 75.104 66.122 C 74.335 66.49 74.091 67.177 73.931 67.9 C 73.814 68.428 73.749 68.968 73.654 69.544 C 73.612 69.14 73.582 68.773 73.533 68.408 C 73.471 67.942 73.327 67.5 73.109 67.08 C 72.903 66.683 72.591 66.391 72.183 66.121 Z" style=""/>
</svg>