<svg viewBox="0 0 100 100" width="100" height="66">
    <g fill="#e50b22"
        transform="matrix(0.3633739948272705, 0, 0, 0.3633739948272705, -48.76477432250975, -40.610939025878906)">
        <path
            d="m242.58 192.54c8.55-10.39 15-22.31 21.42-34.08-1.02 7.11-3.38 13.92-5.82 20.65-3.55 9.53-7.51 18.91-11.78 28.15 19.44-9.75 33.81-26.98 45.65-44.78-6.48 22.61-20.26 43.57-39.97 56.73 11.71-.55 23.32-2.52 34.71-5.22-6.33 5.14-13.67 9.01-21.5 11.28-14.98 4.38-30.92 3.86-45.87 8.38-4.79 1.49-9.05 4.99-10.79 9.79-2.56 6.8-1.42 14.25-.73 21.29 4.18-5.4 10.67-8.32 17.2-9.71-9.35 2.77-12.24 13.35-13.61 21.88-1.49 6.21.92 13.22-2.68 18.9-3.33 5.08-10.29 5.38-15.73 4.74-7.16-2.08-12.1-8.21-16.63-13.76 5.62 3.48 11.83 6.71 18.59 6.81 2.37.12 3.95-1.82 5.36-3.41-1.6-3-4.03-5.59-7.39-6.57 2.99.31 5.99.09 8.89-.67.07-5.54-1.32-11.07-3.99-15.93-5.37-9.49-4.99-20.86-4.57-31.41-1.85.29-4.35.33-5.18 2.37-2.3 4.22-4.34 8.7-4.85 13.53-.82-2.08-1.72-4.13-2.58-6.19-2.57 1.89-5.55 3.05-8.67 3.63-1.81 2.88-3.17 6.02-3.91 9.35-1.38-2.85-2.71-5.72-3.82-8.69-2.58.61-6.6-.25-7.8 2.8-2.16 6.85.16 14.05 2.4 20.57-2.89-2.03-5.76-4.21-7.76-7.17-3.7-5.16-4.91-11.55-7.9-17.08-3.67-6.89-6.25-14.27-9.07-21.53 10.39 1.7 20.73-2.24 29.48-7.56 11.98-7.38 22.16-17.4 30.94-28.33 6.91 2.62 13.91 5.46 21.34 6.07 3.1.37 5.36-2.16 7.22-4.25 4.6-5.53 7.93-11.96 11.23-18.32-1.41 8.62-3.39 17.12-5.4 25.61 5.46-.5 10.23-3.64 13.57-7.87m-72.18 34.12c7.57-.79 15.17-1.36 22.66-2.71 1.59-7.02 3.39-13.99 5.2-20.96-8.22 9.04-18.02 16.5-27.86 23.67z" />
        <path
            d="M 293.79 158.57 C 326.21 164.34 355.92 183.15 375.6 209.49 C 391.93 231.16 401.44 257.33 405.88 283.94 C 408.94 302.05 409.81 320.48 409.23 338.82 C 403.97 318.94 395.4 299.11 380.35 284.66 C 376.32 280.82 371.7 277.69 366.82 275.06 C 369.88 296.59 369.89 319.55 360.89 339.75 C 361.16 323.78 358.51 306.71 348.3 293.87 C 347.33 307.83 341.9 321.9 331.38 331.43 C 327.42 335.12 322.72 337.88 317.89 340.26 C 322.93 334.06 326.39 326.48 326.89 318.44 C 307.03 334.32 280.83 339.34 256 340.1 C 230.72 340.13 205.43 340.1 180.15 340.11 C 181.59 325.76 190.68 313.26 202.52 305.48 C 214.75 296.44 230.27 292.86 241.55 282.43 C 247.53 276.98 252.89 269.56 252.56 261.1 C 252.34 254.48 247.07 249.02 240.91 247.27 C 234.06 245.19 226.25 243.28 219.45 246.5 C 216.31 247.83 214.65 250.91 213.31 253.85 C 212.88 249.16 214.77 244.34 218.8 241.73 C 226.96 236.14 237.36 235.11 247 235.59 C 258.59 236.03 269.98 241.86 276.73 251.36 C 282.82 260.38 283.32 271.64 284.43 282.12 C 282.5 279.35 280.24 276.85 277.84 274.5 C 280.74 286.5 276.88 298.79 272.79 310.03 C 273.4 304.35 273.33 298.43 271 293.11 C 268.85 304.91 263.65 316.22 255.42 325.03 C 257.42 320.42 259.05 315.56 259.02 310.47 C 254.9 313.82 250.7 317.48 248.44 322.39 C 245.98 327.98 246.52 334.43 248.61 340.05 C 271.03 331.51 290.83 313.01 296.05 288.96 C 300.58 297.59 299.42 307.76 297.69 316.98 C 308.37 306.15 313.1 290.42 311.94 275.44 C 311.34 265.68 308.54 256.19 304.76 247.22 C 317.81 256.42 326.61 271.03 329.15 286.75 C 329.98 264.31 328.03 241.73 323.09 219.82 C 317.95 197.65 309.19 175.68 293.79 158.57 Z" />
    </g>
</svg>