<?xml version="1.0" encoding="utf-8"?>
<svg viewBox="0 0 100 100" xmlns="http://www.w3.org/2000/svg">
  <path fill-rule="evenodd" clip-rule="evenodd" d="M 95.822 38.829 C 95.561 38.941 95.303 39.061 95.037 39.161 C 94.907 39.211 94.863 39.297 94.856 39.419 C 94.847 39.567 94.838 39.715 94.834 39.864 C 94.816 40.479 94.792 41.095 94.787 41.711 C 94.774 43.425 94.771 45.139 94.762 46.853 C 94.748 49.434 94.73 52.016 94.717 54.598 C 94.707 56.563 94.704 58.529 94.691 60.494 C 94.689 60.835 94.65 61.175 94.625 61.577 C 94.548 61.486 94.487 61.432 94.447 61.365 C 93.858 60.373 93.26 59.385 92.688 58.384 C 90.772 55.032 88.866 51.674 86.953 48.32 C 86.342 47.248 85.72 46.183 85.1 45.116 C 85.034 45.002 84.956 44.896 84.884 44.786 C 84.862 44.793 84.84 44.8 84.818 44.808 C 84.818 45.166 84.815 45.524 84.82 45.883 C 84.822 46.03 84.849 46.178 84.85 46.325 C 84.861 47.136 84.861 47.948 84.877 48.758 C 84.891 49.511 84.915 50.264 84.946 51.016 C 84.985 51.995 85.029 52.975 85.085 53.953 C 85.113 54.452 85.172 54.95 85.219 55.469 C 85.834 55.686 86.435 55.9 87.036 56.112 C 84.585 56.185 82.139 56.09 79.674 56.052 C 79.945 55.921 80.215 55.789 80.487 55.659 C 80.57 55.62 80.653 55.574 80.741 55.555 C 81.074 55.485 81.154 55.25 81.17 54.953 C 81.219 54.02 81.288 53.087 81.326 52.154 C 81.383 50.729 81.423 49.304 81.466 47.879 C 81.493 46.944 81.51 46.009 81.535 45.073 C 81.555 44.332 81.581 43.591 81.602 42.85 C 81.607 42.646 81.603 42.442 81.603 42.227 C 80.954 42.013 80.327 41.807 79.652 41.584 C 79.797 41.475 79.92 41.511 80.03 41.511 C 81.509 41.508 82.989 41.515 84.468 41.506 C 85.062 41.503 85.655 41.467 86.273 41.445 C 86.521 41.864 86.759 42.278 87.009 42.685 C 88.295 44.778 89.583 46.87 90.874 48.96 C 90.972 49.119 91.098 49.26 91.271 49.382 C 91.283 49.192 91.304 49.003 91.306 48.813 C 91.324 46.895 91.348 44.976 91.35 43.057 C 91.351 42.156 91.315 41.255 91.28 40.354 C 91.268 40.048 91.201 39.745 91.169 39.439 C 91.15 39.267 91.061 39.187 90.899 39.132 C 90.423 38.968 89.953 38.786 89.482 38.609 C 89.432 38.59 89.384 38.565 89.345 38.486 L 95.822 38.486 L 95.822 38.829 Z" style=""/>
  <path fill-rule="evenodd" clip-rule="evenodd" d="M 24.944 53.284 C 25.084 53.823 25.295 54.293 25.622 54.734 C 25.669 54.426 25.727 54.119 25.761 53.809 C 25.868 52.858 25.963 51.906 26.066 50.954 C 26.16 50.079 26.217 49.201 26.173 48.323 C 26.116 47.186 26.023 46.05 25.934 44.914 C 25.895 44.415 25.826 43.917 25.776 43.419 C 25.764 43.297 25.774 43.172 25.774 43.019 C 26.31 43.019 26.835 43.007 27.36 43.021 C 28.413 43.049 29.467 43.105 30.491 43.371 C 31.696 43.684 32.843 44.136 33.844 44.899 C 35.045 45.814 35.713 47.041 35.928 48.515 C 35.997 48.986 35.996 49.469 36.008 49.948 C 36.021 50.437 36.012 50.437 36.55 50.415 C 36.564 50.316 36.594 50.209 36.592 50.103 C 36.569 49.019 36.541 47.935 36.516 46.851 C 36.488 45.676 36.461 44.5 36.435 43.325 C 36.434 43.292 36.446 43.259 36.454 43.213 C 36.508 43.202 36.563 43.182 36.617 43.181 C 37.981 43.167 39.343 43.183 40.689 43.435 C 41.684 43.623 42.603 43.983 43.364 44.675 C 43.99 45.244 44.351 45.951 44.471 46.784 C 44.551 47.336 44.501 47.875 44.312 48.399 C 44.093 49.003 43.673 49.446 43.15 49.801 C 42.653 50.138 42.109 50.373 41.532 50.539 C 41.38 50.582 41.232 50.641 41.032 50.71 C 41.519 51.336 42.036 51.876 42.573 52.394 C 43.113 52.915 43.673 53.418 44.324 53.832 C 44.039 53.867 43.753 53.904 43.458 53.941 C 43.623 54.178 44.167 54.535 44.683 54.745 C 44.73 54.622 44.787 54.502 44.823 54.376 C 45.195 53.082 45.582 51.792 45.929 50.491 C 46.481 48.418 47.006 46.338 47.544 44.261 C 47.569 44.161 47.611 44.065 47.629 43.965 C 47.66 43.788 47.763 43.718 47.936 43.707 C 48.621 43.664 49.305 43.61 49.99 43.569 C 50.755 43.523 51.52 43.487 52.285 43.445 C 52.753 43.419 53.221 43.39 53.689 43.364 C 53.73 43.361 53.771 43.37 53.887 43.38 C 53.296 43.804 52.764 44.187 52.218 44.578 C 52.46 45.127 52.69 45.647 52.919 46.168 C 54.146 48.946 55.375 51.723 56.598 54.503 C 56.689 54.711 56.814 54.868 57.021 54.971 C 57.451 55.185 57.874 55.411 58.375 55.671 L 52.632 55.671 C 52.82 55.469 53.074 55.377 53.3 55.248 C 53.538 55.113 53.784 54.991 54.051 54.85 C 54.025 54.759 54.005 54.661 53.968 54.571 C 53.52 53.446 53.07 52.323 52.62 51.2 C 52.501 50.904 52.5 50.913 52.177 50.937 C 51.652 50.976 51.126 50.993 50.602 51.037 C 49.998 51.087 49.397 51.155 48.795 51.217 C 48.751 51.222 48.708 51.238 48.643 51.254 C 48.29 52.537 47.937 53.822 47.576 55.136 C 48.01 55.308 48.428 55.474 48.847 55.64 C 46.494 55.51 44.168 55.833 41.822 55.897 C 41.593 55.403 41.375 54.913 41.14 54.432 C 40.615 53.353 40.084 52.278 39.545 51.205 C 39.481 51.078 39.445 50.854 39.225 50.921 C 39.033 50.98 39.113 51.174 39.111 51.311 C 39.098 52.374 39.099 53.436 39.081 54.499 C 39.077 54.743 39.134 54.9 39.373 55.012 C 39.627 55.13 39.856 55.304 40.09 55.488 C 38.603 55.668 37.122 55.808 35.582 55.909 C 36.058 54.207 36.442 52.533 36.558 50.77 C 36.395 50.729 36.223 50.686 36.024 50.635 C 35.974 50.918 35.928 51.185 35.879 51.45 C 35.585 53.051 34.64 54.14 33.189 54.816 C 31.976 55.382 30.7 55.751 29.368 55.872 C 28.458 55.955 27.538 55.94 26.623 55.975 C 26.315 55.987 26.008 56.025 25.7 56.035 C 25.314 56.048 24.926 56.044 24.54 56.047 C 24.482 56.047 24.425 56.043 24.368 56.042 C 23.554 56.034 22.74 56.031 21.926 56.018 C 21.377 56.009 20.828 55.981 20.279 55.977 C 19.948 55.975 19.617 56.005 19.285 56.016 C 18.907 56.028 18.529 56.031 18.151 56.044 C 18.018 56.048 17.885 56.07 17.675 56.092 C 18.399 56.958 19.14 57.708 19.91 58.431 C 20.677 59.151 21.48 59.825 22.424 60.411 C 22.276 60.441 22.19 60.47 22.103 60.476 C 21.19 60.533 20.276 60.582 19.363 60.64 C 18.805 60.676 18.246 60.716 17.688 60.769 C 17.506 60.786 17.398 60.733 17.289 60.583 C 15.377 57.93 13.455 55.286 11.545 52.632 C 10.924 51.768 10.349 50.873 9.865 49.924 C 9.845 49.884 9.814 49.848 9.77 49.782 C 9.559 49.805 9.337 49.829 9.105 49.854 C 9.079 50.119 9.045 50.355 9.036 50.591 C 9.02 51.059 9.019 51.528 9.01 51.996 C 8.989 53.023 8.969 54.05 8.943 55.077 C 8.936 55.325 8.998 55.503 9.234 55.642 C 9.537 55.821 9.809 56.052 10.089 56.298 C 9.271 56.451 8.453 56.527 7.635 56.612 C 6.809 56.697 5.985 56.801 5.102 56.843 C 5.642 54.441 6.108 52.075 6.245 49.629 C 5.536 49.429 4.827 49.27 4.179 48.933 C 4.865 49.031 5.551 49.129 6.286 49.233 C 6.286 48.738 6.291 48.295 6.284 47.853 C 6.279 47.546 6.261 47.239 6.242 46.932 C 6.172 45.748 6.105 44.565 6.026 43.382 C 5.961 42.393 5.886 41.405 5.805 40.417 C 5.756 39.816 5.687 39.216 5.63 38.616 C 5.625 38.562 5.64 38.506 5.648 38.424 C 5.739 38.454 5.813 38.472 5.882 38.503 C 6.943 38.971 8.061 39.267 9.171 39.589 C 10.062 39.848 10.947 40.124 11.785 40.525 C 12.801 41.011 13.717 41.626 14.33 42.601 C 14.899 43.506 15.064 44.501 14.97 45.555 C 14.908 46.239 14.726 46.879 14.345 47.453 C 13.772 48.315 12.946 48.851 12.003 49.232 C 11.823 49.305 11.638 49.367 11.458 49.44 C 11.377 49.472 11.303 49.521 11.174 49.59 C 13.019 51.198 14.862 52.742 16.806 54.261 C 16.843 54.132 16.881 54.054 16.885 53.975 C 16.92 53.28 16.965 52.585 16.977 51.89 C 17.009 49.949 17.03 48.007 17.046 46.066 C 17.049 45.691 16.989 45.315 16.986 44.94 C 16.984 44.64 16.86 44.408 16.65 44.218 C 16.37 43.965 16.079 43.725 15.79 43.483 C 15.679 43.389 15.56 43.304 15.399 43.18 C 15.861 43.18 16.266 43.171 16.671 43.182 C 17.07 43.194 17.471 43.213 17.869 43.25 C 18.911 43.345 19.95 43.227 20.99 43.223 C 21.871 43.218 22.752 43.182 23.633 43.154 C 23.942 43.145 24.249 43.115 24.558 43.097 C 24.646 43.092 24.736 43.096 24.85 43.096 C 24.774 44.014 24.701 44.904 24.625 45.822 C 24.431 45.666 24.251 45.513 24.063 45.371 C 23.575 45.001 23.057 44.693 22.426 44.634 C 21.818 44.577 21.218 44.636 20.622 44.752 C 20.398 44.796 20.176 44.856 19.951 44.893 C 19.772 44.924 19.697 45.026 19.683 45.195 C 19.666 45.399 19.63 45.602 19.624 45.807 C 19.592 46.822 19.567 47.836 19.54 48.854 C 19.634 48.883 19.685 48.912 19.738 48.914 C 20.803 48.935 21.866 48.885 22.926 48.779 C 23.175 48.755 23.36 48.659 23.518 48.441 C 23.686 48.21 23.931 48.034 24.166 47.812 C 24.187 48.887 24.206 49.905 24.226 50.966 C 24.101 50.928 24.026 50.912 23.957 50.883 C 22.669 50.345 21.343 50.253 19.985 50.553 C 19.906 50.57 19.83 50.598 19.752 50.614 C 19.619 50.642 19.557 50.718 19.564 50.855 C 19.617 52.051 19.668 53.247 19.721 54.442 C 19.721 54.453 19.73 54.463 19.743 54.492 C 19.781 54.505 19.833 54.537 19.885 54.538 C 20.894 54.542 21.902 54.548 22.911 54.54 C 23.114 54.538 23.318 54.486 23.52 54.45 C 24.124 54.342 24.579 54.04 24.818 53.456 C 24.835 53.414 24.861 53.376 24.885 53.337 C 24.89 53.327 24.901 53.321 24.944 53.284 Z M 33.613 50.425 C 32.95 50.773 32.297 51.03 31.55 51.201 C 31.661 51.016 31.743 50.884 31.822 50.749 C 32.401 49.763 32.695 48.715 32.445 47.572 C 32.236 46.615 31.714 45.929 30.692 45.741 C 30.018 45.616 29.341 45.511 28.664 45.401 C 28.604 45.391 28.538 45.417 28.478 45.426 C 28.557 46.16 28.647 46.872 28.705 47.587 C 28.763 48.301 28.817 49.019 28.819 49.735 C 28.822 50.463 28.781 51.192 28.719 51.918 C 28.658 52.625 28.546 53.327 28.453 54.062 C 28.6 54.062 28.725 54.072 28.849 54.06 C 29.649 53.986 30.435 53.845 31.178 53.525 C 32.124 53.117 32.88 52.5 33.324 51.553 C 33.481 51.218 33.628 50.872 33.613 50.425 Z M 9.056 49.143 C 9.295 49.085 9.505 49.044 9.709 48.983 C 10.768 48.666 11.524 48.049 11.775 46.918 C 11.977 46.004 12.016 45.09 11.836 44.171 C 11.707 43.516 11.49 42.893 11.077 42.356 C 10.777 41.967 10.416 41.645 9.904 41.589 C 9.454 41.539 9.301 41.688 9.307 42.072 C 9.31 42.231 9.302 42.391 9.295 42.551 C 9.254 43.472 9.207 44.394 9.172 45.316 C 9.141 46.113 9.123 46.911 9.1 47.708 C 9.086 48.163 9.072 48.617 9.056 49.143 Z M 39.103 49.271 C 39.163 49.284 39.187 49.296 39.207 49.292 C 40.16 49.095 41.011 48.7 41.654 47.952 C 42.417 47.063 42.018 45.854 41.206 45.426 C 40.733 45.176 40.232 45.044 39.703 44.996 C 39.49 44.976 39.273 44.939 39.021 45.067 C 39.049 46.463 39.076 47.871 39.103 49.271 Z M 50.297 45.384 C 50.078 45.845 49.161 49.285 49.181 49.546 C 50.085 49.579 50.99 49.542 51.945 49.517 C 51.389 48.122 50.854 46.781 50.297 45.384 Z" style=""/>
  <path fill-rule="evenodd" clip-rule="evenodd" d="M 79.324 50.353 C 79.859 49.867 80.189 49.31 80.6 48.782 C 80.587 48.894 80.58 49.008 80.561 49.119 C 80.375 50.191 79.945 51.172 79.417 52.113 C 79.131 52.62 78.847 53.126 78.581 53.645 C 77.956 54.868 76.99 55.695 75.616 55.983 C 75.327 56.044 75.027 56.08 74.732 56.082 C 74.172 56.086 73.61 56.079 73.051 56.04 C 71.218 55.91 69.974 54.964 69.325 53.264 C 69.086 52.637 68.929 51.979 68.735 51.335 C 68.716 51.275 68.7 51.213 68.665 51.086 C 68.336 51.534 68.044 51.935 67.702 52.402 C 67.665 52.147 67.631 51.966 67.613 51.783 C 67.507 50.69 67.665 49.624 67.968 48.575 C 68.301 47.423 68.832 46.361 69.519 45.383 C 70.177 44.447 71.084 43.852 72.213 43.625 C 73.692 43.328 75.11 43.486 76.424 44.267 C 77.39 44.841 78.064 45.684 78.531 46.689 C 79.039 47.781 79.277 48.937 79.301 50.139 C 79.302 50.184 79.31 50.229 79.324 50.353 Z M 70.264 49.395 C 70.241 50.103 70.344 50.755 70.549 51.389 C 70.842 52.297 71.338 53.06 72.195 53.538 C 72.649 53.792 73.145 53.91 73.665 53.967 C 74.274 54.034 74.853 53.959 75.401 53.696 C 76.341 53.248 76.898 52.47 77.169 51.497 C 77.491 50.341 77.385 49.192 76.972 48.072 C 76.736 47.429 76.372 46.869 75.835 46.431 C 74.992 45.743 74.008 45.555 72.962 45.695 C 71.902 45.837 71.125 46.405 70.653 47.374 C 70.335 48.027 70.227 48.717 70.264 49.395 Z" style=""/>
  <path fill-rule="evenodd" clip-rule="evenodd" d="M 66.929 49.878 C 67.096 51.813 67.099 53.724 67.655 55.586 C 67.571 55.605 67.521 55.626 67.469 55.628 C 66.703 55.653 65.936 55.683 65.17 55.697 C 63.99 55.719 62.811 55.745 61.631 55.739 C 60.775 55.735 59.952 55.541 59.174 55.178 C 58.057 54.656 57.25 53.824 56.757 52.706 C 56.153 51.335 55.952 49.897 56.215 48.422 C 56.481 46.929 57.298 45.756 58.469 44.809 C 59.48 43.99 60.647 43.592 61.925 43.423 C 62.865 43.298 63.777 43.403 64.681 43.616 C 65.628 43.84 66.565 44.098 67.506 44.343 C 67.572 44.36 67.633 44.392 67.745 44.437 C 67.185 45.279 66.9 46.206 66.759 47.238 C 66.589 47.096 66.453 46.981 66.317 46.868 C 65.461 46.156 64.519 45.607 63.418 45.371 C 62.456 45.165 61.502 45.201 60.585 45.574 C 59.106 46.175 58.478 47.506 58.807 49.017 C 58.954 49.693 59.303 50.263 59.78 50.759 C 59.887 50.871 59.998 50.979 60.154 51.136 C 59.8 51.132 59.539 51.054 59.296 50.938 C 59.062 50.827 58.846 50.679 58.59 50.527 C 58.643 51.034 58.782 51.486 58.974 51.923 C 59.535 53.201 60.554 53.853 61.906 54.067 C 62.943 54.231 63.931 54.078 64.898 53.695 C 65.122 53.606 65.204 53.482 65.235 53.245 C 65.3 52.74 65.195 52.246 65.187 51.746 C 65.184 51.577 65.069 51.451 64.915 51.377 C 64.482 51.169 64.055 50.946 63.611 50.765 C 63.05 50.538 62.474 50.346 61.905 50.137 C 61.844 50.115 61.785 50.089 61.735 50.015 C 61.797 50.015 61.86 50.016 61.923 50.015 C 62.964 49.992 64.006 49.972 65.047 49.944 C 65.55 49.931 66.052 49.9 66.555 49.878 C 66.669 49.874 66.783 49.878 66.929 49.878 Z" style=""/>
  <path fill-rule="evenodd" clip-rule="evenodd" d="M 72.183 49.46 C 73.152 48.839 73.416 47.864 73.68 46.807 C 74.004 47.821 74.199 48.814 75.104 49.461 C 74.335 49.829 74.091 50.516 73.931 51.239 C 73.814 51.767 73.749 52.307 73.654 52.883 C 73.612 52.479 73.582 52.112 73.533 51.747 C 73.471 51.281 73.327 50.839 73.109 50.419 C 72.903 50.022 72.591 49.73 72.183 49.46 Z" style=""/>
</svg>